<svg id="Layer_1" data-name="Layer 1" xmlns="http://www.w3.org/2000/svg" viewBox="0 0 187.72 193.76"><defs><style>.cls-1{fill:#22083c;}.cls-2{fill:#fff;}</style></defs><title>sniddl200svg</title><path class="cls-1" d="M177.75,94.22a17.09,17.09,0,0,0-28.52-16.06q-.3.29-.6.6a15,15,0,0,1-14.9-13.93,24.16,24.16,0,0,0,10.35,2.27,31.33,31.33,0,0,0,9.42-1.54c7.86-2.49,15.43-10.47,20.4-16.73a108.11,108.11,0,0,0,13.35-21.55c1.92-4.37,2.35-6.9,1.5-8.73S185,13.78,171.25,9.1c-8.6-2.92-18-5.25-23.87-5.93-14.92-1.72-27.52.72-34.57,6.69-4.65,3.94-6.59,10-6.86,14.38a13.8,13.8,0,0,0,.4,4.5,43.55,43.55,0,0,0,10.38,83.1,17.78,17.78,0,0,0,30.46,11.53,20.37,20.37,0,0,1,2.91,10.56,20.59,20.59,0,0,1-20.56,20.56,27.37,27.37,0,0,1-11.55-2.4,27.09,27.09,0,0,1-9.3-7.32,39,39,0,0,1-3.82-5.54c-1.24-2.16-2.13-4.45-3.23-6.67a3.35,3.35,0,0,0-6.39,1.2v.18a34,34,0,0,0,5.2,18.17,3.37,3.37,0,0,0-2,1.31,31.71,31.71,0,0,1-7-19.47,3.34,3.34,0,0,0-6.64-.54c-4.35-6.66-10.63-11.74-21.78-11.74a3.34,3.34,0,0,0-1.14,6.49c9.9,3.6,12.89,12,16.36,21.76l.31.86c-9-7.58-19.93-14.49-35.76-17.93-1.25-4.53-3.73-7.74-7.38-9.56-10.85-5.4-27.56,4.34-29.43,5.47a3.34,3.34,0,0,0-.87,5c1.26,1.55,12.68,15.18,24.22,15.18a14.08,14.08,0,0,0,1.63-.09c4.41-.52,8.06-3,10.86-7.53a72.08,72.08,0,0,1,36,27.61,62.44,62.44,0,0,0,51.79,27.53c.67,0,1.33,0,2,0A62.47,62.47,0,0,0,177.75,94.22ZM30.31,143.9c-4.31.51-9.07-2.11-13-5.16a57.65,57.65,0,0,1-6.53-6L10.1,132c3.71-2,12.86-6.31,19.79-5.32a10.61,10.61,0,0,1,3.24,1,9.42,9.42,0,0,1,4.69,6,107.72,107.72,0,0,0-17.48-1.35l-2.39,0-.14,0-.16,0-.15,0-.15,0-.14.07-.13.07-.12.1-.11.1-.1.12-.09.12-.07.13-.07.14s0,.1,0,.15,0,.1,0,.15a1.61,1.61,0,0,0,0,.16s0,.09,0,.14h0s0,.09,0,.14a1.63,1.63,0,0,0,0,.16,1.6,1.6,0,0,0,0,.15s0,.1,0,.14a1.57,1.57,0,0,0,.09.16l.06.1a1.59,1.59,0,0,0,.14.17l0,.06a1.58,1.58,0,0,0,.2.17l0,0a1.56,1.56,0,0,0,.25.13h0l.25.08h0l.21,0H18a74.62,74.62,0,0,1,16.14,1.76q1.87.41,3.71.92C35.81,141.63,33.28,143.55,30.31,143.9Zm101.06,47.55a57.35,57.35,0,0,1-49.54-25.33,76.58,76.58,0,0,0-25.69-23.74c13.32,5.9,22.37,14.73,30.78,22.93,11.75,11.46,22.85,22.29,42.62,22.29A53.66,53.66,0,0,0,170,98.7a1.58,1.58,0,1,0-2.39,2.08q.69.79,1.35,1.61a50.49,50.49,0,0,1-39.44,82c-16.76,0-26.68-8.15-37.15-18.23l-1.79-1.73a1.59,1.59,0,0,0-.15-.23c-3.58-4.55-5.65-10.37-7.65-16-2.62-7.36-5.3-14.9-11.35-20.12,8,3.3,11.44,11.45,15,20,3.18,7.49,6.46,15.23,13,20.07a41.32,41.32,0,0,0,30,12.41,46.62,46.62,0,0,0,35.07-77.34,1.58,1.58,0,1,0-2.38,2.09q.65.74,1.27,1.51a43.45,43.45,0,0,1-34,70.57,38.25,38.25,0,0,1-27.62-11.22,1.81,1.81,0,0,0-.44-.5l-.09-.06-.08-.06-.1-.11a40,40,0,0,1-5.88-8.09A44.44,44.44,0,0,0,99.86,162a45.46,45.46,0,0,0,29.68,11.53,39.58,39.58,0,0,0,29.65-65.79,1.58,1.58,0,0,0-2.37,2.1q.49.56,1,1.13a36.41,36.41,0,0,1-28.24,59.39A28.9,28.9,0,0,1,116,166.93a35.48,35.48,0,0,1-7.29-5.15,49.55,49.55,0,0,0,19.88,4.66l1,0a32.53,32.53,0,0,0,24.23-54.24,1.58,1.58,0,1,0-2.36,2.11q.44.49.85,1a29.37,29.37,0,0,1-22.72,48l-.92,0a29.45,29.45,0,0,1-26.73-19.44,38.14,38.14,0,0,0,6.25,7.53,30.6,30.6,0,0,0,21.4,8,25.49,25.49,0,0,0,18.82-42.68,1.54,1.54,0,0,0-.55-.38,1.63,1.63,0,0,0-.57-.13,1.61,1.61,0,0,0-1.15.44,1.58,1.58,0,0,0-.3.39,12.85,12.85,0,0,1-22.61-12.23,1.58,1.58,0,0,0-.64-2.15l-.18-.07a1.58,1.58,0,0,0-2,.71,15.87,15.87,0,0,0-1.19,2.84c-.1.33-.19.67-.28,1l-.54-.07a38.64,38.64,0,0,1-33.6-37.86,39.2,39.2,0,0,1,.33-5.48,38.63,38.63,0,0,1,43.34-33.26,1.59,1.59,0,0,0,1.69-1,1.57,1.57,0,0,0,.09-.35,1.58,1.58,0,0,0-1.36-1.78,41.56,41.56,0,0,0-17,1.28l-.1,0v0l-.08-.17a1.58,1.58,0,0,0-.22-.31c-.26-.28-.72-1.4-.58-3.63.2-3.2,1.66-8,5.13-10.92,6-5.09,17.25-7.12,30.82-5.55a80.61,80.61,0,0,1,9,1.68c4.34,1,9.18,2.42,13.81,4,9.72,3.29,14,5.85,14.67,6.82.13,1.59-3.29,9.82-10.25,19.83-7.67,11-15.68,18.48-22,20.47-6.11,1.93-10.9,1.46-14.39.25a24.35,24.35,0,0,1,.18-4.07c.41-3.23,2.14-5.87,3.86-8.53A16.8,16.8,0,0,1,147,47.07a1.58,1.58,0,0,0-.32-3.15,19.93,19.93,0,0,0,.69,39.72,15.25,15.25,0,0,0-1.6,6.83,1.58,1.58,0,0,0,3.17,0,12,12,0,0,1,2.5-7.39l0,0a12.38,12.38,0,0,1,1.2-1.34,12.16,12.16,0,0,1,19.91,12.8,1.58,1.58,0,0,0,.35,1.62l.15.15a57.54,57.54,0,0,1-41.67,95.16Zm-28.08-30.57h0Z" transform="translate(-4.28 -2.63)"/><path class="cls-1" d="M161.08,82.21a8.26,8.26,0,1,0,8.26,8.26A8.26,8.26,0,0,0,161.08,82.21ZM163.29,89a2.17,2.17,0,1,1,2.17-2.17A2.17,2.17,0,0,1,163.29,89Z" transform="translate(-4.28 -2.63)"/><path class="cls-1" d="M134.48,102.68a8.26,8.26,0,1,0,8.26,8.26A8.26,8.26,0,0,0,134.48,102.68Zm2.22,7a2.17,2.17,0,1,1,2.17-2.17A2.17,2.17,0,0,1,136.7,109.66Z" transform="translate(-4.28 -2.63)"/><path class="cls-1" d="M134.56,31.85a18.14,18.14,0,0,1,2.95,2,1.58,1.58,0,0,0,2.19-2.27l-.13-.14A21.07,21.07,0,0,0,136,29a1.58,1.58,0,0,0-2.14.67,1.61,1.61,0,0,0,.67,2.14Z" transform="translate(-4.28 -2.63)"/><path class="cls-2" d="M177.75,94.22a17.09,17.09,0,0,0-28.52-16.06q-.3.29-.6.6a15,15,0,0,1-14.9-13.93,24.16,24.16,0,0,0,10.35,2.27,31.33,31.33,0,0,0,9.42-1.54c7.86-2.49,15.43-10.47,20.4-16.73a108.11,108.11,0,0,0,13.35-21.55c1.92-4.37,2.35-6.9,1.5-8.73S185,13.78,171.25,9.1c-8.6-2.92-18-5.25-23.87-5.93-14.92-1.72-27.52.72-34.57,6.69-4.65,3.94-6.59,10-6.86,14.38a13.8,13.8,0,0,0,.4,4.5,43.55,43.55,0,0,0,10.38,83.1,17.78,17.78,0,0,0,30.46,11.53,20.37,20.37,0,0,1,2.91,10.56,20.59,20.59,0,0,1-20.56,20.56,27.37,27.37,0,0,1-11.55-2.4,27.09,27.09,0,0,1-9.3-7.32,39,39,0,0,1-3.82-5.54c-1.24-2.16-2.13-4.45-3.23-6.67a3.35,3.35,0,0,0-6.39,1.2v.18a34,34,0,0,0,5.2,18.17,3.37,3.37,0,0,0-2,1.31,31.71,31.71,0,0,1-7-19.47,3.34,3.34,0,0,0-6.64-.54c-4.35-6.66-10.63-11.74-21.78-11.74a3.34,3.34,0,0,0-1.14,6.49c9.9,3.6,12.89,12,16.36,21.76l.31.86c-9-7.58-19.93-14.49-35.76-17.93-1.25-4.53-3.73-7.74-7.38-9.56-10.85-5.4-27.56,4.34-29.43,5.47a3.34,3.34,0,0,0-.87,5c1.26,1.55,12.68,15.18,24.22,15.18a14.08,14.08,0,0,0,1.63-.09c4.41-.52,8.06-3,10.86-7.53a72.08,72.08,0,0,1,36,27.61,62.44,62.44,0,0,0,51.79,27.53c.67,0,1.33,0,2,0A62.47,62.47,0,0,0,177.75,94.22ZM30.31,143.9c-4.31.51-9.07-2.11-13-5.16a57.65,57.65,0,0,1-6.53-6L10.1,132c3.71-2,12.86-6.31,19.79-5.32a10.61,10.61,0,0,1,3.24,1,9.42,9.42,0,0,1,4.69,6,107.72,107.72,0,0,0-17.48-1.35l-2.39,0-.14,0-.16,0-.15,0-.15,0-.14.07-.13.07-.12.1-.11.1-.1.12-.09.12-.07.13-.07.14s0,.1,0,.15,0,.1,0,.15a1.61,1.61,0,0,0,0,.16s0,.09,0,.14h0s0,.09,0,.14a1.63,1.63,0,0,0,0,.16,1.6,1.6,0,0,0,0,.15s0,.1,0,.14a1.57,1.57,0,0,0,.09.16l.06.1a1.59,1.59,0,0,0,.14.17l0,.06a1.58,1.58,0,0,0,.2.17l0,0a1.56,1.56,0,0,0,.25.13h0l.25.08h0l.21,0H18a74.62,74.62,0,0,1,16.14,1.76q1.87.41,3.71.92C35.81,141.63,33.28,143.55,30.31,143.9Zm101.06,47.55a57.35,57.35,0,0,1-49.54-25.33,76.58,76.58,0,0,0-25.69-23.74c13.32,5.9,22.37,14.73,30.78,22.93,11.75,11.46,22.85,22.29,42.62,22.29A53.66,53.66,0,0,0,170,98.7a1.58,1.58,0,1,0-2.39,2.08q.69.79,1.35,1.61a50.49,50.49,0,0,1-39.44,82c-16.76,0-26.68-8.15-37.15-18.23l-1.79-1.73a1.59,1.59,0,0,0-.15-.23c-3.58-4.55-5.65-10.37-7.65-16-2.62-7.36-5.3-14.9-11.35-20.12,8,3.3,11.44,11.45,15,20,3.18,7.49,6.46,15.23,13,20.07a41.32,41.32,0,0,0,30,12.41,46.62,46.62,0,0,0,35.07-77.34,1.58,1.58,0,1,0-2.38,2.09q.65.74,1.27,1.51a43.45,43.45,0,0,1-34,70.57,38.25,38.25,0,0,1-27.62-11.22,1.81,1.81,0,0,0-.44-.5l-.09-.06-.08-.06-.1-.11a40,40,0,0,1-5.88-8.09A44.44,44.44,0,0,0,99.86,162a45.46,45.46,0,0,0,29.68,11.53,39.58,39.58,0,0,0,29.65-65.79,1.58,1.58,0,0,0-2.37,2.1q.49.56,1,1.13a36.41,36.41,0,0,1-28.24,59.39A28.9,28.9,0,0,1,116,166.93a35.48,35.48,0,0,1-7.29-5.15,49.55,49.55,0,0,0,19.88,4.66l1,0a32.53,32.53,0,0,0,24.23-54.24,1.58,1.58,0,1,0-2.36,2.11q.44.49.85,1a29.37,29.37,0,0,1-22.72,48l-.92,0a29.45,29.45,0,0,1-26.73-19.44,38.14,38.14,0,0,0,6.25,7.53,30.6,30.6,0,0,0,21.4,8,25.49,25.49,0,0,0,18.82-42.68,1.54,1.54,0,0,0-.55-.38,1.63,1.63,0,0,0-.57-.13,1.61,1.61,0,0,0-1.15.44,1.58,1.58,0,0,0-.3.39,12.85,12.85,0,0,1-22.61-12.23,1.58,1.58,0,0,0-.64-2.15l-.18-.07a1.58,1.58,0,0,0-2,.71,15.87,15.87,0,0,0-1.19,2.84c-.1.33-.19.67-.28,1l-.54-.07a38.64,38.64,0,0,1-33.6-37.86,39.2,39.2,0,0,1,.33-5.48,38.63,38.63,0,0,1,43.34-33.26,1.59,1.59,0,0,0,1.69-1,1.57,1.57,0,0,0,.09-.35,1.58,1.58,0,0,0-1.36-1.78,41.56,41.56,0,0,0-17,1.28l-.1,0v0l-.08-.17a1.58,1.58,0,0,0-.22-.31c-.26-.28-.72-1.4-.58-3.63.2-3.2,1.66-8,5.13-10.92,6-5.09,17.25-7.12,30.82-5.55a80.61,80.61,0,0,1,9,1.68c4.34,1,9.18,2.42,13.81,4,9.72,3.29,14,5.85,14.67,6.82.13,1.59-3.29,9.82-10.25,19.83-7.67,11-15.68,18.48-22,20.47-6.11,1.93-10.9,1.46-14.39.25a24.35,24.35,0,0,1,.18-4.07c.41-3.23,2.14-5.87,3.86-8.53A16.8,16.8,0,0,1,147,47.07a1.58,1.58,0,0,0-.32-3.15,19.93,19.93,0,0,0,.69,39.72,15.25,15.25,0,0,0-1.6,6.83,1.58,1.58,0,0,0,3.17,0,12,12,0,0,1,2.5-7.39l0,0a12.38,12.38,0,0,1,1.2-1.34,12.16,12.16,0,0,1,19.91,12.8,1.58,1.58,0,0,0,.35,1.62l.15.15a57.54,57.54,0,0,1-41.67,95.16Zm-28.08-30.57h0Z" transform="translate(-4.28 -2.63)"/><path class="cls-2" d="M161.08,82.21a8.26,8.26,0,1,0,8.26,8.26A8.26,8.26,0,0,0,161.08,82.21ZM163.29,89a2.17,2.17,0,1,1,2.17-2.17A2.17,2.17,0,0,1,163.29,89Z" transform="translate(-4.28 -2.63)"/><path class="cls-2" d="M134.48,102.68a8.26,8.26,0,1,0,8.26,8.26A8.26,8.26,0,0,0,134.48,102.68Zm2.22,7a2.17,2.17,0,1,1,2.17-2.17A2.17,2.17,0,0,1,136.7,109.66Z" transform="translate(-4.28 -2.63)"/><path class="cls-2" d="M134.56,31.85a18.14,18.14,0,0,1,2.95,2,1.58,1.58,0,0,0,2.19-2.27l-.13-.14A21.07,21.07,0,0,0,136,29a1.58,1.58,0,0,0-2.14.67,1.61,1.61,0,0,0,.67,2.14Z" transform="translate(-4.28 -2.63)"/></svg>